<svg width="430" height="406" viewBox="0 0 430 406" fill="none" xmlns="http://www.w3.org/2000/svg">
<g clip-path="url(#clip0)">
<path fill-rule="evenodd" clip-rule="evenodd" d="M339.065 128.244C332.589 132.147 326.226 134.033 323.24 133.263C315.75 131.333 315.062 103.935 320.857 93.1339C326.651 82.3328 356.442 77.625 357.943 99.0255C358.464 106.453 355.346 113.081 350.738 118.49L359 157H335L339.065 128.244Z" fill="#D4A181"/>
<path fill-rule="evenodd" clip-rule="evenodd" d="M368.407 91.9017C369.182 91.1335 369.605 90.0371 369.97 88.9959C370.35 87.9144 370.719 86.8217 370.972 85.696C371.475 83.4468 371.48 80.8602 369.876 79.1136C368.589 77.7131 366.658 77.0849 364.876 76.9484C363.689 76.8573 362.469 77.0236 361.331 77.3978C360.202 77.7689 359.229 78.5086 358.134 78.9678C358.092 76.5439 357.677 74.0077 356.447 71.9381C355.264 69.9468 353.378 68.8293 351.229 68.5337C349.024 68.2303 346.846 68.7463 344.872 69.8139C344.378 70.0813 343.888 70.3614 343.419 70.6784C343.027 70.9439 342.619 71.2636 342.159 71.3716C341.645 71.4921 341.391 71.1957 341.058 70.8212C340.666 70.3822 340.226 69.9955 339.76 69.6527C337.698 68.1373 334.993 67.5142 332.604 68.4225C331.504 68.8411 330.433 69.5518 329.687 70.5313C329.021 71.4043 328.546 72.7892 327.628 73.3975C327.238 73.6557 326.963 73.3136 326.608 73.0608C326.075 72.6809 325.566 72.2617 325.027 71.8921C324.269 71.3729 323.448 70.9845 322.57 70.7812C321.283 70.4836 319.506 70.5534 319.138 72.2382C319 72.871 319.106 73.5479 319.15 74.1855C319.211 75.0611 319.275 75.9363 319.351 76.8106C319.409 77.4744 319.482 78.1155 319.607 78.7674C319.674 79.1148 319.883 79.7626 319.734 80.1106C319.548 80.5455 318.689 80.2982 318.321 80.3134C317.596 80.3433 316.868 80.4705 316.197 80.7804C315.678 81.0206 315.131 81.3738 314.912 81.9694C314.777 82.3353 314.813 82.7112 314.876 83.0876C314.953 83.5393 314.865 83.779 314.808 84.2348C313.834 83.7552 310.459 82.6896 310.035 84.4351C309.893 85.0163 310.215 85.673 310.461 86.1632C310.892 87.0229 311.457 87.8087 312.034 88.5581C313.239 90.1214 314.677 91.4698 316.224 92.623C314.411 93.4289 313.938 95.806 315.507 97.2223C316.2 97.8476 317.132 97.9868 318.006 97.9468C318.326 97.9321 318.787 97.8092 319.039 97.8649C319.175 97.8948 319.32 98.0097 319.507 98.0225C320.741 98.107 322.134 97.8098 323.34 97.536C325.488 97.0482 327.523 96.0302 329.184 94.4797C329.61 94.082 329.962 93.853 330.536 93.8589C331.038 93.864 331.532 94.0018 332.034 94.0145C333.362 94.0484 334.56 93.3989 335.794 92.9665C335.87 94.6333 336.345 96.4691 337.026 97.9687C337.582 99.1915 338.743 99.3692 339.884 99.4765C343.533 99.8198 347.194 99.4367 350.848 99.4417C347.311 100.241 343.657 100.571 340.152 101.511C338.568 101.936 339.778 103.004 340.455 103.744C341.57 104.963 342.4 106.474 342.975 108.065C344.705 105.81 347.763 104.324 350.472 105.017C353.465 105.782 355.573 109.83 353.659 112.74C352.547 114.429 350.541 115.081 348.871 115.807C350.173 117.161 350.489 119.161 351.273 120.846C351.659 121.677 352.202 122.617 353.067 122.906C353.387 123.013 353.762 123.022 354.014 123.283C354.327 123.606 354.401 123.967 354.801 124.245C356.394 125.352 358.883 125.267 360.295 123.821C361.572 122.514 361.24 120.445 360.173 119.12C361.871 118.412 364.964 117.502 364.289 114.857C367.968 114.613 376.9 108.646 371.963 104.286C374.673 102.755 377.162 99.012 375.422 95.7127C374.081 93.1721 370.964 92.0364 368.407 91.9017" fill="#2F1136"/>
<path fill-rule="evenodd" clip-rule="evenodd" d="M402.377 282H325.123L315 406H430L402.377 282Z" fill="#C5CFD6"/>
<path fill-rule="evenodd" clip-rule="evenodd" d="M402.377 282H378.617L364.396 406H430L402.377 282Z" fill="black" fill-opacity="0.1"/>
<path fill-rule="evenodd" clip-rule="evenodd" d="M282.677 306.567C291.358 324.978 304.923 369.672 304.923 369.672L293.407 374.934C293.407 374.934 264.186 327.952 246.328 295.836C247.16 303.066 248.007 311.206 248.792 319.763C250.653 340.033 248.793 383.827 247.792 396.477C247.163 404.428 236.36 402.762 235.352 396.457C235.181 395.389 234.485 391.639 233.446 386.045C228.353 358.613 215.024 286.818 215 269.238C214.991 262.165 228.81 255.81 237.047 260.756C242.705 254.719 253.412 251.24 259.564 261.212C263.475 267.552 272.767 285.55 282.677 306.567Z" fill="#D4A181"/>
<path fill-rule="evenodd" clip-rule="evenodd" d="M304.1 353.125L264.573 259.487C255.103 244.255 228.554 262.587 231.783 271.422C239.114 291.479 276.4 356.414 278.585 362.39L304.1 353.125Z" fill="#1F28CF"/>
<path fill-rule="evenodd" clip-rule="evenodd" d="M303.336 364.185C304.029 363.241 305.37 363.017 306.266 363.771C307.901 365.146 310.252 367.264 311.101 368.734C312.453 371.076 314.267 376.021 314.267 376.021C311.55 377.59 265.422 404.222 265.422 404.222C265.422 404.222 259.884 399.027 263.696 396.156C267.509 393.286 269.988 391.315 269.988 391.315L286.848 368.087C287.179 367.631 287.821 367.538 288.267 367.882L291.77 370.579C291.77 370.579 296.591 370.158 298.965 368.788C300.41 367.953 302.176 365.767 303.336 364.185Z" fill="#E4E4E4"/>
<path fill-rule="evenodd" clip-rule="evenodd" d="M247.55 390.284C248.622 389.813 249.896 390.29 250.295 391.391C251.023 393.398 252 396.409 252 398.106C252 400.811 251.099 406 251.099 406C247.961 406 194.697 406 194.697 406C194.697 406 192.498 398.732 197.235 398.152C201.972 397.573 205.105 397.106 205.105 397.106L231.32 385.419C231.835 385.189 232.437 385.43 232.652 385.951L234.337 390.039C234.337 390.039 238.722 392.085 241.463 392.085C243.132 392.085 245.754 391.074 247.55 390.284Z" fill="#E4E4E4"/>
<path fill-rule="evenodd" clip-rule="evenodd" d="M212.23 276.433C212.23 303 224.846 364.97 224.854 370.82L252 370.841C252 370.841 246.04 287.898 247.773 287.004C249.507 286.111 318.824 293.925 339.614 293.925C369.592 293.925 381.994 275.02 383 240H323.614C311.522 241.294 248.451 254.015 225.028 258.388C215 260.261 212.23 269.115 212.23 276.433Z" fill="#2B44FF"/>
<path fill-rule="evenodd" clip-rule="evenodd" d="M291.271 253.264C310.262 292.816 390.209 266.11 390.209 266.11C390.209 259.256 387.49 252.385 384.635 245.169C381.574 237.431 378.356 229.296 378.163 220.361C377.809 203.921 374.735 154.113 361.907 137.287C361.673 136.527 361.436 135.764 361.196 135L360.308 135.418C360.169 135.275 360.03 135.136 359.889 135L331.899 139.328C331.899 151.988 323.797 163.993 316.503 174.8C314.729 177.43 313.002 179.988 311.451 182.468C309.42 185.716 307.128 189.022 304.78 192.41C292.885 209.569 279.536 228.825 291.271 253.264Z" fill="#C1DEE2"/>
<path fill-rule="evenodd" clip-rule="evenodd" d="M327.137 245.787C325.265 236.127 324.051 229.678 323.494 226.439C308.582 243.29 299.967 251.813 297.65 252.009C293.291 252.376 290.071 248.511 289.153 249.598C287.638 254.098 291.919 265.362 300.102 267C304.009 267.782 310.056 259.724 312.547 256.869C313.527 255.746 318.39 252.052 327.137 245.787V245.787ZM301.379 194.282C297.513 194.282 295.437 195.88 293.151 199.105C290.866 202.329 288.703 217.535 292.372 217.535C296.042 217.535 311.417 211.657 311.417 207.705C311.417 203.753 300.926 202.08 300.926 199.105C300.926 196.13 305.244 194.282 301.379 194.282Z" fill="#D4A181"/>
<path fill-rule="evenodd" clip-rule="evenodd" d="M366.435 153.719C376.252 194.651 372.253 229.173 334.942 260.487C335.38 262.06 335.643 263 335.643 263C379.439 232.391 379.46 195.296 366.435 153.719Z" fill="black" fill-opacity="0.2"/>
<path fill-rule="evenodd" clip-rule="evenodd" d="M70.9354 55.2443C77.411 59.1475 83.7736 61.0333 86.7603 60.2635C94.2496 58.333 94.9382 30.9351 89.1433 20.1339C83.3485 9.33281 53.5583 4.62498 52.0568 26.0255C51.5356 33.4529 54.6544 40.0814 59.2623 45.4901L51 84H75L70.9354 55.2443Z" fill="#B28B67"/>
<path fill-rule="evenodd" clip-rule="evenodd" d="M92 10C92 15.3411 87.8127 19.7042 82.5417 19.9856C79.5265 20.916 75.6525 21.5991 71.3562 21.8871C71.7733 23.4558 72 25.2378 72 27.2516C72 29.0297 71.8037 30.9155 71.4424 32.8303C70.5106 31.7228 69.2646 31 68 31C64.4624 31 62 33.9101 62 37C62 40.9215 64.2639 43.7584 67.5687 43.9853C64.5926 49.698 60.4765 54 56.3643 54C48.5536 54 43 43.5573 43 32.3296C43 31.9351 43.0078 31.5432 43.0232 31.1543C40.3791 32.9688 37.929 35.3471 35.4613 37.7426L35.4612 37.7427C30.2178 42.8326 24.8946 48 17.4607 48C2.58723 48 -3.31966 18 17.4607 18C31.593 18 38.5446 20.0605 44.5355 23.1074C45.7171 19.7763 47.5188 16.9757 49.722 15.0199C50.252 14.4233 51.0646 13.8524 52.1129 13.3232C52.7538 12.9725 53.417 12.687 54.0987 12.472C57.7117 11.1443 62.945 10.2078 68.7906 10.0037C69.8822 9.96554 70.9542 9.95438 72 9.96844C72.0171 4.4601 76.4877 0 82 0C87.5229 0 92 4.47715 92 10Z" fill="#191847"/>
<path fill-rule="evenodd" clip-rule="evenodd" d="M43 167L80.6308 290.024L98.8602 394.648H113.153L93.891 167H43Z" fill="#997659"/>
<path fill-rule="evenodd" clip-rule="evenodd" d="M29.5377 167C32.0937 234.547 29.0857 269.389 28.5136 275.526C27.9416 281.663 20.1082 321.455 1.56369 396.708L16.794 391.478C46.1019 322.459 56.0889 286.589 59.4503 277.526C62.8117 268.463 71.7394 231.621 86.2334 167H29.5377Z" fill="#B28B67"/>
<path fill-rule="evenodd" clip-rule="evenodd" d="M4.44963 390.284C3.37791 389.813 2.10433 390.29 1.70514 391.391C0.977002 393.398 0 396.409 0 398.106C0 400.811 0.901243 406 0.901243 406C4.03915 406 57.3031 406 57.3031 406C57.3031 406 59.5016 398.732 54.7648 398.152C50.0281 397.573 46.895 397.106 46.895 397.106L20.68 385.419C20.1654 385.189 19.563 385.43 19.3483 385.951L17.6632 390.039C17.6632 390.039 13.2782 392.085 10.5367 392.085C8.86767 392.085 6.24569 391.074 4.44963 390.284Z" fill="#DDE3E9"/>
<path fill-rule="evenodd" clip-rule="evenodd" d="M98.4496 390.284C97.3779 389.813 96.1043 390.29 95.7051 391.391C94.977 393.398 94 396.409 94 398.106C94 400.811 94.9012 406 94.9012 406C98.0392 406 151.303 406 151.303 406C151.303 406 153.502 398.732 148.765 398.152C144.028 397.573 140.895 397.106 140.895 397.106L114.68 385.419C114.165 385.189 113.563 385.43 113.348 385.951L111.663 390.039C111.663 390.039 107.278 392.085 104.537 392.085C102.868 392.085 100.246 391.074 98.4496 390.284Z" fill="#DDE3E9"/>
<path fill-rule="evenodd" clip-rule="evenodd" d="M38 167L54 229.68H102.87L95.5836 167H38Z" fill="#69A1AC"/>
<path fill-rule="evenodd" clip-rule="evenodd" d="M29 167C21.1031 190.671 26 229.68 26 229.68H75.8703L89.5835 167H29Z" fill="#89C5CC"/>
<path fill-rule="evenodd" clip-rule="evenodd" d="M130.348 85.6899L95.638 104.7L108.456 118.458L133.677 95.3653C146.963 91.7037 153.039 89.0251 151.905 87.3294C150.948 85.8997 149.406 85.9494 147.985 85.9951C146.878 86.0307 145.845 86.064 145.22 85.3937C143.794 83.8628 146.515 78.5104 149.315 73.5416C152.114 68.5727 149.121 69.0053 147.409 69.7199C141.807 73.5123 136.12 78.8356 130.348 85.6899ZM165.247 112.364L150 120.74L150.868 136.04C150.868 136.04 160.743 128.913 169.238 126.544C180.071 123.524 184.453 121.218 189.746 114.473C192.578 110.865 194.982 103.61 192.286 101.248C191.252 100.341 187.399 102.482 183.468 104.667C180.472 106.332 177.43 108.022 175.556 108.408C173.034 108.927 173.329 105.657 173.565 103.045C173.734 101.17 173.873 99.633 172.918 100.077C168.455 100.154 165.247 112.364 165.247 112.364Z" fill="#997659"/>
<path fill-rule="evenodd" clip-rule="evenodd" d="M78.7341 100.465C90.8917 100.337 107.104 97.7692 124.402 86.7888L131.196 101.939C119.264 113.78 102.486 123.51 87.8161 123.098C76.2553 122.773 70.3467 108.789 78.7341 100.465Z" fill="#DB2721"/>
<path fill-rule="evenodd" clip-rule="evenodd" d="M45.9446 204.259C34.3866 202.752 23.7664 201.367 17.4728 202.606C10.4113 179.673 16.2749 165.234 21.6879 151.905C24.9502 143.871 28.0489 136.241 28.0555 127.397C28.0748 101.642 48.7544 62 51.797 62H52.6703H76.7832H79.5438C80.7842 77.9374 86.0788 95.193 91.4073 112.56C92.6517 116.615 93.8979 120.677 95.0948 124.729C115.26 129.307 160.036 113.373 160.036 113.373C160.036 113.373 171.34 136.759 170.487 146.717C144.424 160.331 122.087 166.401 103.683 166.802C104.268 177.721 102.939 188.112 98.4739 197.606C92.4913 210.327 67.5758 207.079 45.9446 204.259Z" fill="#FF4133"/>
<path d="M105.48 50C105.395 50 105.315 49.968 105.24 49.904C105.176 49.8293 105.144 49.7493 105.144 49.664C105.144 49.6 105.149 49.552 105.16 49.52L108.92 39.248C108.952 39.12 109.021 39.0133 109.128 38.928C109.235 38.8427 109.373 38.8 109.544 38.8H111.912C112.083 38.8 112.221 38.8427 112.328 38.928C112.435 39.0133 112.504 39.12 112.536 39.248L116.28 49.52L116.312 49.664C116.312 49.7493 116.275 49.8293 116.2 49.904C116.136 49.968 116.056 50 115.96 50H113.992C113.736 50 113.565 49.888 113.48 49.664L112.856 48.032H108.584L107.976 49.664C107.891 49.888 107.715 50 107.448 50H105.48ZM112.216 45.728L110.728 41.504L109.24 45.728H112.216ZM125.485 50.16C124.418 50.16 123.592 49.8027 123.005 49.088V49.6C123.005 49.7067 122.968 49.8027 122.893 49.888C122.818 49.9627 122.722 50 122.605 50H120.797C120.69 50 120.594 49.9627 120.509 49.888C120.434 49.8027 120.397 49.7067 120.397 49.6V39.04C120.397 38.9227 120.434 38.8267 120.509 38.752C120.594 38.6773 120.69 38.64 120.797 38.64H122.749C122.866 38.64 122.962 38.6773 123.037 38.752C123.112 38.8267 123.149 38.9227 123.149 39.04V42.464C123.746 41.8347 124.525 41.52 125.485 41.52C126.52 41.52 127.336 41.856 127.933 42.528C128.53 43.2 128.85 44.112 128.893 45.264C128.904 45.4027 128.909 45.5947 128.909 45.84C128.909 46.0747 128.904 46.2613 128.893 46.4C128.84 47.5947 128.52 48.5227 127.933 49.184C127.346 49.8347 126.53 50.16 125.485 50.16ZM124.621 48.016C125.122 48.016 125.48 47.8667 125.693 47.568C125.917 47.2693 126.045 46.8587 126.077 46.336C126.098 46.1227 126.109 45.9573 126.109 45.84C126.109 45.7227 126.098 45.5573 126.077 45.344C126.045 44.8213 125.917 44.4107 125.693 44.112C125.48 43.8133 125.122 43.664 124.621 43.664C124.152 43.664 123.794 43.808 123.549 44.096C123.304 44.384 123.17 44.7467 123.149 45.184L123.133 45.776L123.149 46.384C123.181 46.864 123.309 47.2587 123.533 47.568C123.768 47.8667 124.13 48.016 124.621 48.016ZM134.427 50.16C133.104 50.16 132.086 49.8453 131.371 49.216C130.656 48.5867 130.267 47.7013 130.203 46.56C130.192 46.4213 130.187 46.1813 130.187 45.84C130.187 45.4987 130.192 45.2587 130.203 45.12C130.267 43.9893 130.667 43.1093 131.403 42.48C132.139 41.84 133.147 41.52 134.427 41.52C135.718 41.52 136.731 41.84 137.467 42.48C138.203 43.1093 138.603 43.9893 138.667 45.12C138.678 45.2587 138.683 45.4987 138.683 45.84C138.683 46.1813 138.678 46.4213 138.667 46.56C138.603 47.7013 138.214 48.5867 137.499 49.216C136.784 49.8453 135.76 50.16 134.427 50.16ZM134.427 48.208C134.896 48.208 135.243 48.0693 135.467 47.792C135.691 47.504 135.819 47.0667 135.851 46.48C135.862 46.3733 135.867 46.16 135.867 45.84C135.867 45.52 135.862 45.3067 135.851 45.2C135.819 44.624 135.686 44.192 135.451 43.904C135.227 43.616 134.886 43.472 134.427 43.472C133.542 43.472 133.072 44.048 133.019 45.2L133.003 45.84L133.019 46.48C133.04 47.0667 133.163 47.504 133.387 47.792C133.622 48.0693 133.968 48.208 134.427 48.208ZM141.449 53.04C141.353 53.04 141.273 53.008 141.209 52.944C141.145 52.88 141.113 52.8 141.113 52.704C141.113 52.6293 141.129 52.56 141.161 52.496L142.409 49.488L139.337 42.224C139.305 42.1387 139.289 42.0747 139.289 42.032C139.31 41.936 139.353 41.856 139.417 41.792C139.481 41.7173 139.561 41.68 139.657 41.68H141.481C141.705 41.68 141.86 41.792 141.945 42.016L143.769 46.672L145.641 42.016C145.748 41.792 145.908 41.68 146.121 41.68H147.913C148.009 41.68 148.089 41.7173 148.153 41.792C148.228 41.856 148.265 41.9307 148.265 42.016C148.265 42.0587 148.249 42.128 148.217 42.224L143.689 52.704C143.604 52.928 143.444 53.04 143.209 53.04H141.449ZM156.38 50.16C155.057 50.16 154.039 49.8453 153.324 49.216C152.609 48.5867 152.22 47.7013 152.156 46.56C152.145 46.4213 152.14 46.1813 152.14 45.84C152.14 45.4987 152.145 45.2587 152.156 45.12C152.22 43.9893 152.62 43.1093 153.356 42.48C154.092 41.84 155.1 41.52 156.38 41.52C157.671 41.52 158.684 41.84 159.42 42.48C160.156 43.1093 160.556 43.9893 160.62 45.12C160.631 45.2587 160.636 45.4987 160.636 45.84C160.636 46.1813 160.631 46.4213 160.62 46.56C160.556 47.7013 160.167 48.5867 159.452 49.216C158.737 49.8453 157.713 50.16 156.38 50.16ZM156.38 48.208C156.849 48.208 157.196 48.0693 157.42 47.792C157.644 47.504 157.772 47.0667 157.804 46.48C157.815 46.3733 157.82 46.16 157.82 45.84C157.82 45.52 157.815 45.3067 157.804 45.2C157.772 44.624 157.639 44.192 157.404 43.904C157.18 43.616 156.839 43.472 156.38 43.472C155.495 43.472 155.025 44.048 154.972 45.2L154.956 45.84L154.972 46.48C154.993 47.0667 155.116 47.504 155.34 47.792C155.575 48.0693 155.921 48.208 156.38 48.208ZM162.625 50C162.508 50 162.412 49.9627 162.337 49.888C162.263 49.8133 162.225 49.7173 162.225 49.6V42.08C162.225 41.9627 162.263 41.8667 162.337 41.792C162.412 41.7173 162.508 41.68 162.625 41.68H164.465C164.583 41.68 164.679 41.7227 164.753 41.808C164.839 41.8827 164.881 41.9733 164.881 42.08V42.72C165.468 42.0267 166.257 41.68 167.249 41.68H167.953C168.071 41.68 168.167 41.7173 168.241 41.792C168.316 41.8667 168.353 41.9627 168.353 42.08V43.728C168.353 43.8347 168.316 43.9307 168.241 44.016C168.167 44.0907 168.071 44.128 167.953 44.128H166.401C165.964 44.128 165.623 44.2507 165.377 44.496C165.143 44.7307 165.025 45.0667 165.025 45.504V49.6C165.025 49.7173 164.983 49.8133 164.897 49.888C164.823 49.9627 164.727 50 164.609 50H162.625ZM176.665 53.52C175.651 53.52 174.83 53.3547 174.201 53.024C173.571 52.6933 173.118 52.3147 172.841 51.888C172.574 51.4613 172.441 51.104 172.441 50.816C172.441 50.72 172.483 50.6347 172.569 50.56C172.654 50.4853 172.75 50.448 172.857 50.448H174.889C174.995 50.448 175.075 50.4693 175.129 50.512C175.193 50.5653 175.251 50.6507 175.305 50.768C175.411 51.0133 175.555 51.2053 175.737 51.344C175.918 51.4933 176.201 51.568 176.585 51.568C177.075 51.568 177.438 51.4453 177.673 51.2C177.907 50.9653 178.025 50.5653 178.025 50V48.928C177.481 49.5253 176.702 49.824 175.689 49.824C174.611 49.824 173.785 49.5093 173.209 48.88C172.643 48.24 172.334 47.3173 172.281 46.112L172.265 45.68C172.265 44.3893 172.553 43.376 173.129 42.64C173.705 41.8933 174.558 41.52 175.689 41.52C176.233 41.52 176.713 41.6267 177.129 41.84C177.545 42.0427 177.897 42.32 178.185 42.672V42.08C178.185 41.9627 178.222 41.8667 178.297 41.792C178.382 41.7173 178.478 41.68 178.585 41.68H180.425C180.542 41.68 180.638 41.7227 180.713 41.808C180.798 41.8827 180.841 41.9733 180.841 42.08V49.776C180.841 50.992 180.478 51.92 179.753 52.56C179.027 53.2 177.998 53.52 176.665 53.52ZM176.553 47.744C177.033 47.744 177.39 47.6 177.625 47.312C177.859 47.0133 177.993 46.64 178.025 46.192C178.035 46.1173 178.041 45.952 178.041 45.696C178.041 45.4507 178.035 45.2907 178.025 45.216C178.003 44.768 177.87 44.4 177.625 44.112C177.39 43.8133 177.033 43.664 176.553 43.664C176.051 43.664 175.689 43.8133 175.465 44.112C175.241 44.4107 175.118 44.8213 175.097 45.344L175.081 45.696C175.081 46.3253 175.187 46.8267 175.401 47.2C175.614 47.5627 175.998 47.744 176.553 47.744ZM183.109 40.48C182.992 40.48 182.896 40.4427 182.821 40.368C182.747 40.2933 182.709 40.1973 182.709 40.08V38.64C182.709 38.5227 182.747 38.4267 182.821 38.352C182.896 38.2773 182.992 38.24 183.109 38.24H185.029C185.147 38.24 185.243 38.2773 185.317 38.352C185.392 38.4267 185.429 38.5227 185.429 38.64V40.08C185.429 40.1973 185.392 40.2933 185.317 40.368C185.243 40.4427 185.147 40.48 185.029 40.48H183.109ZM183.125 50C183.008 50 182.912 49.9627 182.837 49.888C182.763 49.8133 182.725 49.7173 182.725 49.6V42.08C182.725 41.9627 182.763 41.8667 182.837 41.792C182.912 41.7173 183.008 41.68 183.125 41.68H185.013C185.131 41.68 185.227 41.7173 185.301 41.792C185.376 41.8667 185.413 41.9627 185.413 42.08V49.6C185.413 49.7067 185.376 49.8027 185.301 49.888C185.227 49.9627 185.131 50 185.013 50H183.125ZM187.703 50C187.586 50 187.49 49.9627 187.415 49.888C187.341 49.8133 187.303 49.7173 187.303 49.6V42.08C187.303 41.9627 187.341 41.8667 187.415 41.792C187.49 41.7173 187.586 41.68 187.703 41.68H189.543C189.661 41.68 189.757 41.7227 189.831 41.808C189.917 41.8827 189.959 41.9733 189.959 42.08V42.72C190.546 42.0267 191.335 41.68 192.327 41.68H193.031C193.149 41.68 193.245 41.7173 193.319 41.792C193.394 41.8667 193.431 41.9627 193.431 42.08V43.728C193.431 43.8347 193.394 43.9307 193.319 44.016C193.245 44.0907 193.149 44.128 193.031 44.128H191.479C191.042 44.128 190.701 44.2507 190.455 44.496C190.221 44.7307 190.103 45.0667 190.103 45.504V49.6C190.103 49.7173 190.061 49.8133 189.975 49.888C189.901 49.9627 189.805 50 189.687 50H187.703ZM194.969 50C194.862 50 194.766 49.9627 194.681 49.888C194.606 49.8027 194.569 49.7067 194.569 49.6V39.04C194.569 38.9227 194.606 38.8267 194.681 38.752C194.766 38.6773 194.862 38.64 194.969 38.64H196.857C196.974 38.64 197.07 38.6773 197.145 38.752C197.22 38.8267 197.257 38.9227 197.257 39.04V49.6C197.257 49.7173 197.22 49.8133 197.145 49.888C197.07 49.9627 196.974 50 196.857 50H194.969ZM201.947 46.608C201.862 46.608 201.787 46.5813 201.723 46.528C201.659 46.464 201.627 46.3893 201.627 46.304V45.936C201.702 45.488 201.867 45.088 202.123 44.736C202.39 44.384 202.752 43.984 203.211 43.536C203.552 43.1947 203.808 42.9173 203.979 42.704C204.15 42.48 204.24 42.256 204.251 42.032C204.283 41.7013 204.171 41.44 203.915 41.248C203.67 41.0453 203.371 40.944 203.019 40.944C202.187 40.944 201.675 41.344 201.483 42.144C201.398 42.4 201.232 42.528 200.987 42.528H199.035C198.918 42.528 198.822 42.4907 198.747 42.416C198.683 42.3307 198.651 42.224 198.651 42.096C198.672 41.5093 198.859 40.9547 199.211 40.432C199.563 39.8987 200.08 39.4667 200.763 39.136C201.446 38.8053 202.262 38.64 203.211 38.64C204.182 38.64 204.971 38.7947 205.579 39.104C206.187 39.4027 206.619 39.776 206.875 40.224C207.142 40.6613 207.275 41.1093 207.275 41.568C207.275 42.0907 207.152 42.5493 206.907 42.944C206.672 43.3387 206.32 43.792 205.851 44.304C205.563 44.6133 205.334 44.8747 205.163 45.088C205.003 45.3013 204.88 45.5253 204.795 45.76C204.763 45.856 204.726 46 204.683 46.192C204.598 46.3413 204.523 46.448 204.459 46.512C204.395 46.576 204.304 46.608 204.187 46.608H201.947ZM201.979 50C201.862 50 201.766 49.9627 201.691 49.888C201.616 49.8133 201.579 49.7173 201.579 49.6V47.776C201.579 47.6587 201.616 47.5627 201.691 47.488C201.766 47.4133 201.862 47.376 201.979 47.376H204.027C204.144 47.376 204.24 47.4133 204.315 47.488C204.4 47.5627 204.443 47.6587 204.443 47.776V49.6C204.443 49.7173 204.4 49.8133 204.315 49.888C204.24 49.9627 204.144 50 204.027 50H201.979Z" fill="black"/>
<path d="M236.398 122.16C235.577 122.16 234.814 122.021 234.11 121.744C233.417 121.456 232.857 121.035 232.43 120.48C232.014 119.925 231.796 119.259 231.774 118.48C231.774 118.384 231.806 118.304 231.87 118.24C231.934 118.165 232.02 118.128 232.126 118.128H234.286C234.425 118.128 234.532 118.165 234.606 118.24C234.692 118.315 234.766 118.427 234.83 118.576C235.001 119.429 235.55 119.856 236.478 119.856C237.012 119.856 237.422 119.68 237.71 119.328C237.998 118.976 238.142 118.469 238.142 117.808V113.184H232.958C232.852 113.184 232.756 113.147 232.67 113.072C232.596 112.987 232.558 112.891 232.558 112.784V111.2C232.558 111.083 232.596 110.987 232.67 110.912C232.756 110.837 232.852 110.8 232.958 110.8H240.702C240.82 110.8 240.916 110.837 240.99 110.912C241.076 110.987 241.118 111.083 241.118 111.2V117.888C241.118 118.795 240.921 119.568 240.526 120.208C240.132 120.848 239.577 121.333 238.862 121.664C238.148 121.995 237.326 122.16 236.398 122.16ZM246.109 122.16C245.171 122.16 244.413 121.845 243.837 121.216C243.261 120.576 242.973 119.685 242.973 118.544V114.08C242.973 113.963 243.011 113.867 243.085 113.792C243.16 113.717 243.256 113.68 243.373 113.68H245.373C245.491 113.68 245.587 113.717 245.661 113.792C245.747 113.867 245.789 113.963 245.789 114.08V118.448C245.789 119.493 246.253 120.016 247.181 120.016C247.629 120.016 247.981 119.877 248.237 119.6C248.493 119.323 248.621 118.939 248.621 118.448V114.08C248.621 113.963 248.659 113.867 248.733 113.792C248.819 113.717 248.915 113.68 249.021 113.68H251.021C251.139 113.68 251.235 113.717 251.309 113.792C251.384 113.867 251.421 113.963 251.421 114.08V121.6C251.421 121.707 251.384 121.803 251.309 121.888C251.235 121.963 251.139 122 251.021 122H249.165C249.059 122 248.963 121.963 248.877 121.888C248.803 121.803 248.765 121.707 248.765 121.6V120.992C248.211 121.771 247.325 122.16 246.109 122.16ZM256.727 122.16C255.863 122.16 255.138 122.037 254.551 121.792C253.975 121.547 253.549 121.253 253.271 120.912C252.994 120.571 252.855 120.267 252.855 120C252.855 119.893 252.893 119.808 252.967 119.744C253.053 119.669 253.143 119.632 253.239 119.632H255.063C255.127 119.632 255.186 119.659 255.239 119.712C255.367 119.797 255.463 119.867 255.527 119.92C255.762 120.091 255.965 120.219 256.135 120.304C256.317 120.379 256.535 120.416 256.791 120.416C257.101 120.416 257.351 120.357 257.543 120.24C257.746 120.112 257.847 119.936 257.847 119.712C257.847 119.531 257.794 119.387 257.687 119.28C257.591 119.173 257.399 119.072 257.111 118.976C256.823 118.869 256.386 118.757 255.799 118.64C254.914 118.459 254.231 118.165 253.751 117.76C253.282 117.344 253.047 116.789 253.047 116.096C253.047 115.659 253.186 115.243 253.463 114.848C253.741 114.453 254.151 114.133 254.695 113.888C255.25 113.643 255.906 113.52 256.663 113.52C257.421 113.52 258.082 113.637 258.647 113.872C259.213 114.107 259.639 114.395 259.927 114.736C260.226 115.067 260.375 115.371 260.375 115.648C260.375 115.744 260.338 115.829 260.263 115.904C260.199 115.979 260.119 116.016 260.023 116.016H258.359C258.274 116.016 258.194 115.989 258.119 115.936C257.981 115.861 257.858 115.781 257.751 115.696C257.57 115.557 257.399 115.451 257.239 115.376C257.079 115.301 256.882 115.264 256.647 115.264C256.37 115.264 256.146 115.328 255.975 115.456C255.815 115.584 255.735 115.749 255.735 115.952C255.735 116.112 255.778 116.245 255.863 116.352C255.959 116.459 256.151 116.565 256.439 116.672C256.738 116.768 257.175 116.869 257.751 116.976C258.786 117.157 259.538 117.477 260.007 117.936C260.487 118.395 260.727 118.933 260.727 119.552C260.727 120.341 260.375 120.976 259.671 121.456C258.967 121.925 257.986 122.16 256.727 122.16ZM266.356 122C264.148 122 263.044 120.949 263.044 118.848V115.776H261.796C261.679 115.776 261.578 115.739 261.492 115.664C261.418 115.589 261.38 115.493 261.38 115.376V114.08C261.38 113.963 261.418 113.867 261.492 113.792C261.578 113.717 261.679 113.68 261.796 113.68H263.044V111.04C263.044 110.923 263.082 110.827 263.156 110.752C263.242 110.677 263.338 110.64 263.444 110.64H265.3C265.418 110.64 265.514 110.677 265.588 110.752C265.663 110.827 265.7 110.923 265.7 111.04V113.68H267.7C267.818 113.68 267.914 113.717 267.988 113.792C268.074 113.867 268.116 113.963 268.116 114.08V115.376C268.116 115.493 268.074 115.589 267.988 115.664C267.914 115.739 267.818 115.776 267.7 115.776H265.7V118.624C265.7 119.413 266.004 119.808 266.612 119.808H267.844C267.962 119.808 268.058 119.845 268.132 119.92C268.207 119.995 268.244 120.091 268.244 120.208V121.6C268.244 121.707 268.207 121.803 268.132 121.888C268.058 121.963 267.962 122 267.844 122H266.356ZM277.055 125.52C276.042 125.52 275.221 125.355 274.591 125.024C273.962 124.693 273.509 124.315 273.231 123.888C272.965 123.461 272.831 123.104 272.831 122.816C272.831 122.72 272.874 122.635 272.959 122.56C273.045 122.485 273.141 122.448 273.247 122.448H275.279C275.386 122.448 275.466 122.469 275.519 122.512C275.583 122.565 275.642 122.651 275.695 122.768C275.802 123.013 275.946 123.205 276.127 123.344C276.309 123.493 276.591 123.568 276.975 123.568C277.466 123.568 277.829 123.445 278.063 123.2C278.298 122.965 278.415 122.565 278.415 122V120.928C277.871 121.525 277.093 121.824 276.079 121.824C275.002 121.824 274.175 121.509 273.599 120.88C273.034 120.24 272.725 119.317 272.671 118.112L272.655 117.68C272.655 116.389 272.943 115.376 273.519 114.64C274.095 113.893 274.949 113.52 276.079 113.52C276.623 113.52 277.103 113.627 277.519 113.84C277.935 114.043 278.287 114.32 278.575 114.672V114.08C278.575 113.963 278.613 113.867 278.687 113.792C278.773 113.717 278.869 113.68 278.975 113.68H280.815C280.933 113.68 281.029 113.723 281.103 113.808C281.189 113.883 281.231 113.973 281.231 114.08V121.776C281.231 122.992 280.869 123.92 280.143 124.56C279.418 125.2 278.389 125.52 277.055 125.52ZM276.943 119.744C277.423 119.744 277.781 119.6 278.015 119.312C278.25 119.013 278.383 118.64 278.415 118.192C278.426 118.117 278.431 117.952 278.431 117.696C278.431 117.451 278.426 117.291 278.415 117.216C278.394 116.768 278.261 116.4 278.015 116.112C277.781 115.813 277.423 115.664 276.943 115.664C276.442 115.664 276.079 115.813 275.855 116.112C275.631 116.411 275.509 116.821 275.487 117.344L275.471 117.696C275.471 118.325 275.578 118.827 275.791 119.2C276.005 119.563 276.389 119.744 276.943 119.744ZM285.612 122.16C285.047 122.16 284.529 122.053 284.06 121.84C283.601 121.616 283.239 121.317 282.972 120.944C282.716 120.56 282.588 120.139 282.588 119.68C282.588 118.944 282.887 118.352 283.484 117.904C284.092 117.456 284.924 117.147 285.98 116.976L287.98 116.672V116.448C287.98 116.043 287.895 115.744 287.724 115.552C287.553 115.36 287.265 115.264 286.86 115.264C286.615 115.264 286.412 115.307 286.252 115.392C286.092 115.477 285.927 115.595 285.756 115.744C285.607 115.872 285.495 115.957 285.42 116C285.388 116.085 285.329 116.128 285.244 116.128H283.5C283.393 116.128 283.303 116.096 283.228 116.032C283.164 115.957 283.137 115.872 283.148 115.776C283.159 115.488 283.297 115.168 283.564 114.816C283.841 114.464 284.257 114.16 284.812 113.904C285.377 113.648 286.071 113.52 286.892 113.52C288.204 113.52 289.175 113.813 289.804 114.4C290.433 114.976 290.748 115.755 290.748 116.736V121.6C290.748 121.707 290.711 121.803 290.636 121.888C290.561 121.963 290.465 122 290.348 122H288.492C288.385 122 288.289 121.963 288.204 121.888C288.129 121.803 288.092 121.707 288.092 121.6V121.04C287.857 121.371 287.527 121.643 287.1 121.856C286.684 122.059 286.188 122.16 285.612 122.16ZM286.364 120.336C286.855 120.336 287.249 120.176 287.548 119.856C287.857 119.536 288.012 119.067 288.012 118.448V118.224L286.652 118.464C285.692 118.635 285.212 118.971 285.212 119.472C285.212 119.739 285.324 119.952 285.548 120.112C285.772 120.261 286.044 120.336 286.364 120.336ZM295.977 122.16C295.113 122.16 294.388 122.037 293.801 121.792C293.225 121.547 292.799 121.253 292.521 120.912C292.244 120.571 292.105 120.267 292.105 120C292.105 119.893 292.143 119.808 292.217 119.744C292.303 119.669 292.393 119.632 292.489 119.632H294.313C294.377 119.632 294.436 119.659 294.489 119.712C294.617 119.797 294.713 119.867 294.777 119.92C295.012 120.091 295.215 120.219 295.385 120.304C295.567 120.379 295.785 120.416 296.041 120.416C296.351 120.416 296.601 120.357 296.793 120.24C296.996 120.112 297.097 119.936 297.097 119.712C297.097 119.531 297.044 119.387 296.937 119.28C296.841 119.173 296.649 119.072 296.361 118.976C296.073 118.869 295.636 118.757 295.049 118.64C294.164 118.459 293.481 118.165 293.001 117.76C292.532 117.344 292.297 116.789 292.297 116.096C292.297 115.659 292.436 115.243 292.713 114.848C292.991 114.453 293.401 114.133 293.945 113.888C294.5 113.643 295.156 113.52 295.913 113.52C296.671 113.52 297.332 113.637 297.897 113.872C298.463 114.107 298.889 114.395 299.177 114.736C299.476 115.067 299.625 115.371 299.625 115.648C299.625 115.744 299.588 115.829 299.513 115.904C299.449 115.979 299.369 116.016 299.273 116.016H297.609C297.524 116.016 297.444 115.989 297.369 115.936C297.231 115.861 297.108 115.781 297.001 115.696C296.82 115.557 296.649 115.451 296.489 115.376C296.329 115.301 296.132 115.264 295.897 115.264C295.62 115.264 295.396 115.328 295.225 115.456C295.065 115.584 294.985 115.749 294.985 115.952C294.985 116.112 295.028 116.245 295.113 116.352C295.209 116.459 295.401 116.565 295.689 116.672C295.988 116.768 296.425 116.869 297.001 116.976C298.036 117.157 298.788 117.477 299.257 117.936C299.737 118.395 299.977 118.933 299.977 119.552C299.977 120.341 299.625 120.976 298.921 121.456C298.217 121.925 297.236 122.16 295.977 122.16ZM301.861 118.464C301.754 118.464 301.658 118.427 301.573 118.352C301.498 118.267 301.461 118.171 301.461 118.064V111.2C301.461 111.083 301.498 110.987 301.573 110.912C301.658 110.837 301.754 110.8 301.861 110.8H303.701C303.818 110.8 303.914 110.837 303.989 110.912C304.064 110.987 304.101 111.083 304.101 111.2V118.064C304.101 118.171 304.064 118.267 303.989 118.352C303.914 118.427 303.818 118.464 303.701 118.464H301.861ZM301.797 122C301.68 122 301.584 121.963 301.509 121.888C301.434 121.813 301.397 121.717 301.397 121.6V119.632C301.397 119.515 301.434 119.419 301.509 119.344C301.584 119.259 301.68 119.216 301.797 119.216H303.765C303.872 119.216 303.962 119.259 304.037 119.344C304.122 119.419 304.165 119.515 304.165 119.632V121.6C304.165 121.707 304.128 121.803 304.053 121.888C303.978 121.963 303.882 122 303.765 122H301.797Z" fill="black"/>
</g>
<defs>
<clipPath id="clip0">
<rect width="430" height="406" fill="white"/>
</clipPath>
</defs>
</svg>
